<?xml version="1.0" encoding="UTF-8"?>
<svg id="Layer_2" data-name="Layer 2"
  xmlns="http://www.w3.org/2000/svg" viewBox="0 0 1498.6 1284.51">
  <defs>
    <style>
      .cls-1 {
        fill: #fff;
      }

      .logo-rect {
        fill: rgb(59, 130, 246);
      }
    </style>
  </defs>
  <g id="Layer_0" data-name="Layer 0">
    <g>
      <rect id="box" class="logo-rect" x="0" width="1498.6" height="1284.51" rx="174.53" ry="174.53"/>
      <g>
        <path class="cls-1" d="m352.36,790.45c-49.19,49.19-93.1,114.18-98.37,156.34-3.51,24.59,12.3,40.4,40.4,40.4,22.84,0,82.56-12.3,159.85-63.24,33.38-22.84,79.05-59.73,100.13-79.05,14.05-12.3,19.32-12.3,22.84-8.78,3.51,3.51-1.76,12.3-19.32,28.11-21.08,19.32-56.21,49.19-94.86,75.54-61.48,42.16-158.1,84.32-235.39,84.32-86.08,0-126.48-29.86-129.99-79.05-3.51-49.19,36.89-114.18,110.67-163.37,63.24-42.16,172.15-82.56,242.42-82.56,59.73,0,93.1,28.11,86.08,68.51-7.03,38.65-45.67,68.51-70.27,68.51-36.89,0-45.67-31.62-26.35-63.24,24.59-40.4,36.89-52.7,21.08-56.21-21.08-5.27-59.73,22.84-108.91,73.78Z"/>
        <path class="cls-1" d="m888.13,484.8c61.48-66.75,154.58-163.37,217.82-210.8,31.62-22.84,84.32-36.89,124.72-36.89s61.48,5.27,61.48,12.3c-57.97,29.86-198.5,170.39-323.22,319.71-87.83,105.4-210.8,265.25-268.77,354.84l3.51,3.51c31.62-28.11,89.59-75.54,152.83-124.72,50.94-38.65,144.04-103.64,231.88-103.64,50.94,0,79.05,21.08,75.54,56.21-1.76,31.62-42.16,80.81-70.27,115.94-15.81,19.32-31.62,40.4-45.67,66.75-10.54,19.32-14.05,35.13-10.54,47.43,5.27,15.81,19.32,21.08,31.62,21.08,29.86,0,56.21-15.81,86.08-29.86,68.51-33.38,110.67-54.46,159.85-57.97,63.24-3.51,87.83,28.11,86.08,59.73s-35.13,54.46-59.73,65c-5.27,1.76-14.05,5.27-15.81,3.51-1.76-1.76-1.76-3.51,1.76-7.03,3.51-5.27,10.54-15.81,10.54-31.62-1.76-42.16-31.62-54.46-63.24-54.46s-63.24,10.54-128.24,42.16c-28.11,14.05-80.81,36.89-133.5,40.4-63.24,3.51-110.67-12.3-121.21-49.19-8.78-35.13,7.03-77.29,56.21-137.02,26.35-31.62,50.94-61.48,70.27-86.08,7.03-8.78,7.03-19.32-3.51-22.84-10.54-3.51-29.86,1.76-54.46,14.05-33.38,17.57-77.29,49.19-121.21,84.32-77.29,61.48-121.21,100.13-194.99,159.85-14.05,12.3-63.24,14.05-82.56,15.81-56.21,3.51-63.24-3.51-52.7-28.11,15.81-33.38,42.16-75.54,72.02-117.7,22.84-31.62,45.67-59.73,61.48-79.05l-1.76-1.76c-31.62,28.11-68.51,63.24-86.08,79.05-7.03,7.03-14.05,8.78-17.57,3.51s5.27-15.81,19.32-28.11c29.86-26.35,72.02-61.48,115.94-100.13l216.07-258.23Z"/>
      </g>
    </g>
  </g>
</svg>