<?xml version="1.0" encoding="UTF-8"?>
<svg xmlns="http://www.w3.org/2000/svg" viewBox="0 0 1539.91 363.74">
  <defs>
    <style>
      .cls-1 {
        fill: rgb(59, 130, 246);
      }

      .cls-2 {
        fill: #fff;
      }
    </style>
  </defs>
  <g id="Layer_2-2" data-name="Layer 2">
    <g id="long_logo" data-name="long logo">
      <g>
        <rect id="box" class="cls-1" width="424.36" height="363.74" rx="49.42" ry="49.42"/>
        <g>
          <path class="cls-2" d="m99.78,223.83c-13.93,13.93-26.36,32.33-27.86,44.27-.99,6.96,3.48,11.44,11.44,11.44,6.47,0,23.38-3.48,45.27-17.91,9.45-6.47,22.38-16.91,28.35-22.38,3.98-3.48,5.47-3.48,6.47-2.49s-.5,3.48-5.47,7.96c-5.97,5.47-15.92,13.93-26.86,21.39-17.41,11.94-44.77,23.88-66.66,23.88-24.37,0-35.82-8.46-36.81-22.38-.99-13.93,10.45-32.33,31.34-46.26,17.91-11.94,48.75-23.38,68.65-23.38,16.91,0,26.36,7.96,24.37,19.4-1.99,10.94-12.93,19.4-19.9,19.4-10.45,0-12.93-8.95-7.46-17.91,6.96-11.44,10.45-14.92,5.97-15.92-5.97-1.49-16.91,6.47-30.84,20.89Z"/>
          <path class="cls-2" d="m251.49,137.28c17.41-18.9,43.77-46.26,61.68-59.69,8.95-6.47,23.88-10.45,35.32-10.45s17.41,1.49,17.41,3.48c-16.42,8.46-56.21,48.25-91.53,90.53-24.87,29.85-59.69,75.11-76.11,100.48l.99.99c8.95-7.96,25.37-21.39,43.28-35.32,14.43-10.94,40.79-29.35,65.66-29.35,14.43,0,22.38,5.97,21.39,15.92-.5,8.95-11.94,22.88-19.9,32.83-4.48,5.47-8.95,11.44-12.93,18.9-2.98,5.47-3.98,9.95-2.98,13.43,1.49,4.48,5.47,5.97,8.95,5.97,8.46,0,15.92-4.48,24.37-8.46,19.4-9.45,31.34-15.42,45.27-16.42,17.91-.99,24.87,7.96,24.37,16.91-.5,8.95-9.95,15.42-16.91,18.41-1.49.5-3.98,1.49-4.48.99s-.5-.99.5-1.99c.99-1.49,2.98-4.48,2.98-8.95-.5-11.94-8.95-15.42-17.91-15.42s-17.91,2.98-36.31,11.94c-7.96,3.98-22.88,10.45-37.8,11.44-17.91.99-31.34-3.48-34.32-13.93-2.49-9.95,1.99-21.89,15.92-38.8,7.46-8.95,14.43-17.41,19.9-24.37,1.99-2.49,1.99-5.47-.99-6.47s-8.46.5-15.42,3.98c-9.45,4.97-21.89,13.93-34.32,23.88-21.89,17.41-34.32,28.35-55.22,45.27-3.98,3.48-17.91,3.98-23.38,4.48-15.92.99-17.91-.99-14.92-7.96,4.48-9.45,11.94-21.39,20.39-33.33,6.47-8.95,12.93-16.91,17.41-22.38l-.5-.5c-8.95,7.96-19.4,17.91-24.37,22.38-1.99,1.99-3.98,2.49-4.97.99-.99-1.49,1.49-4.48,5.47-7.96,8.46-7.46,20.39-17.41,32.83-28.35l61.18-73.12Z"/>
        </g>
      </g>
      <g>
        <path class="cls-1" d="m542.52,57.51c17.27,0,30.15,7.4,36.72,17.27,3.29-.55,9.59-1.37,14.8-1.37,14.8-.27,34.26,5.21,32.89,20.55-1.1,19.73-33.71,27.68-54.54,27.68-15.35,0-33.98-2.47-44.67-10.14-17.27,15.35-30.97,38.09-30.97,54.81,0,13.7,5.76,26.04,28.5,24.94,14.8-1.1,29.05-8.5,38.37-15.07,6.3-4.38,12.06-9.87,17.54-14.53,2.47-2.19,3.84-2.74,4.39-2.19.55.82-.55,2.19-3.84,5.21-5.76,5.21-12.33,10.96-18.36,15.35-8.22,5.48-22.2,15.07-43.03,16.44-28.5,2.19-47.41-7.4-48.23-29.05-.82-23.84,13.98-47.14,42.48-66.87-4.38-4.66-6.85-10.41-6.85-17.27,0-15.07,14.8-25.76,34.53-25.76h.27Zm.27,3.84c-16.99,0-31.79,7.67-31.79,21.92,0,5.21,1.92,11.78,5.76,15.62,20.01-12.06,38.92-19.18,57.28-23.02-4.38-7.13-17.81-14.53-30.97-14.53h-.27Zm30.15,57.83c17.54,0,38.64-7.67,41.11-26.31.82-11.78-8.22-16.99-20.55-16.99-4.93,0-9.87.55-13.15,1.37,1.92,4.11,3.01,9.59,3.29,15.07.27,6.58-.82,10.41-1.37,10.14-.55-.27,0-3.29-.82-8.5-.82-5.76-3.01-11.51-5.75-15.35-14.25,4.38-35.9,19.73-46.04,30.97,10.14,6.85,28.78,9.59,43.03,9.59h.27Z"/>
        <path class="cls-1" d="m592.67,155.35c-4.11,3.29-8.5,7.13-11.24,9.59-1.92,1.64-3.29,2.47-3.84,1.92-.82-.82,0-1.92,1.64-3.56,2.74-2.47,11.24-10.14,19.73-15.62,7.4-4.66,15.35-7.95,24.39-7.95,10.14,0,12.06.82,9.04,4.38-4.66,5.48-10.14,11.79-15.62,18.64-4.66,5.75-8.22,10.69-10.42,14.8-1.1,1.92-1.37,3.84-.27,4.66,1.1.82,3.01.55,6.3-1.1,6.03-3.01,12.06-7.4,20.55-13.98,11.51-9.04,18.64-16.72,28.23-24.94,2.74-2.19,4.11-3.01,12.88-3.01,10.69,0,12.06.55,9.04,4.38-4.39,5.48-9.04,11.51-14.25,19.18-4.11,6.03-6.3,9.32-7.95,12.33-1.64,3.02-1.92,4.93-.55,6.03,1.37,1.1,4.11.55,6.85-.82,3.29-1.64,6.85-4.11,10.96-7.4,6.03-4.93,10.41-8.77,13.98-12.06.82-.82,2.47-1.92,3.29-1.1.82,1.1-.55,2.19-3.29,4.66-4.11,3.84-10.14,9.04-15.62,13.43-5.75,4.66-16.72,12.06-27.13,12.06-13.16,0-14.25-7.13-13.7-11.78.27-3.02,2.19-6.85,4.38-9.87,1.1-1.64,3.29-4.38,5.21-6.85l-.55-.55c-4.93,4.38-11.51,9.59-15.9,12.88-7.67,5.76-20.83,15.9-34.53,15.9-9.32,0-12.33-3.84-12.33-8.77,0-3.56,1.92-7.13,4.66-11.24,6.03-8.77,18.36-22.2,23.57-24.94-4.66,1.64-10.14,4.93-17.54,10.69Z"/>
        <path class="cls-1" d="m705.04,152.61c-4.93,4.38-10.69,9.87-13.43,12.33-1.1,1.1-2.19,1.37-2.74.55-.55-.82.82-2.47,3.01-4.38,4.66-4.11,11.24-9.59,18.09-15.62,6.85-9.04,21.65-26.86,33.44-40.29,9.32-10.96,20.28-22.47,29.87-31.52,4.38-4.11,11.24-7.95,19.18-7.95,4.66,0,7.95,1.37,8.77,3.01-5.75,4.66-27.13,27.41-41.66,45.22-18.36,22.2-42.21,53.72-44.67,61.66-1.1,3.01-.82,4.93.55,5.75s3.29.55,4.66,0c4.11-1.64,8.5-4.38,14.25-8.77,3.84-3.01,10.14-8.5,13.7-11.79,1.64-1.37,2.47-1.92,3.29-1.1.82.82-.82,2.19-3.01,4.38-3.01,3.01-10.96,9.87-15.9,13.43-8.5,6.3-18.64,12.33-30.15,12.33-9.59,0-12.61-4.38-12.61-9.32,0-8.22,8.77-20.01,15.62-27.68l-.27-.27Z"/>
        <path class="cls-1" d="m747.52,164.94c-2.19,1.92-3.29,2.74-4.11,1.92s.82-2.47,2.19-3.84c7.4-6.58,16.44-14.53,21.65-19.73-2.19,0-6.3.27-9.32.55-2.47.27-3.84.27-3.56-1.1.27-1.64,3.56-1.64,7.13-1.92,3.29-.27,6.3-.27,8.22-.27,9.04-10.42,16.99-19.18,25.49-28.23,9.32-9.87,15.35-12.06,22.75-12.06,4.66,0,7.95,1.1,9.04,2.47-3.84,3.01-10.42,10.42-16.72,17.81-6.3,7.4-10.96,13.16-16.44,20.28,5.76-.27,10.69-.27,15.35,0,1.1,0,4.38.27,3.84,1.64s-3.29,1.1-4.93,1.1c-6.03,0-10.14,0-16.44.27-5.48,6.58-15.9,21.65-20.01,30.15-1.37,2.74-2.74,6.03-.82,7.4,1.37,1.1,4.39.55,7.67-1.1,3.29-1.64,7.67-4.39,12.33-7.95s8.77-7.4,13.43-11.51c1.92-1.64,3.01-1.92,3.56-1.37s.27,1.37-.55,2.19c-4.66,4.38-13.16,12.06-18.36,15.9-5.76,4.11-16.72,12.06-30.15,12.06-9.04,0-12.61-3.84-12.88-8.5-.27-6.3,3.56-13.43,13.7-27.13-4.11,3.56-9.32,8.5-12.06,10.96Z"/>
        <path class="cls-1" d="m814.94,155.35c-4.11,3.29-8.5,7.13-11.24,9.59-1.92,1.64-3.29,2.47-3.84,1.92-.82-.82,0-1.92,1.64-3.56,2.74-2.47,11.24-10.14,19.73-15.62,7.4-4.66,15.35-7.95,24.39-7.95,10.14,0,12.06.82,9.04,4.38-4.66,5.48-10.14,11.79-15.62,18.64-4.66,5.75-8.22,10.69-10.42,14.8-1.1,1.92-1.37,3.84-.27,4.66,1.1.82,3.01.55,6.3-1.1,6.03-3.01,12.06-7.4,20.55-13.98,11.51-9.04,18.64-16.72,28.23-24.94,2.74-2.19,4.11-3.01,12.88-3.01,10.69,0,12.06.55,9.04,4.38-4.39,5.48-9.04,11.51-14.25,19.18-4.11,6.03-6.3,9.32-7.95,12.33-1.64,3.02-1.92,4.93-.55,6.03,1.37,1.1,4.11.55,6.85-.82,3.29-1.64,6.85-4.11,10.96-7.4,6.03-4.93,10.41-8.77,13.98-12.06.82-.82,2.47-1.92,3.29-1.1.82,1.1-.55,2.19-3.29,4.66-4.11,3.84-10.14,9.04-15.62,13.43-5.75,4.66-16.72,12.06-27.13,12.06-13.16,0-14.25-7.13-13.7-11.78.27-3.02,2.19-6.85,4.38-9.87,1.1-1.64,3.29-4.38,5.21-6.85l-.55-.55c-4.93,4.38-11.51,9.59-15.9,12.88-7.67,5.76-20.83,15.9-34.53,15.9-9.32,0-12.33-3.84-12.33-8.77,0-3.56,1.92-7.13,4.66-11.24,6.03-8.77,18.36-22.2,23.57-24.94-4.66,1.64-10.14,4.93-17.54,10.69Z"/>
        <path class="cls-1" d="m1073.11,161.38c2.19-1.92,3.01-1.92,3.56-1.37s-.27,1.92-3.02,4.38c-3.56,3.29-9.59,8.5-16.17,12.61-11.51,7.4-25.49,11.78-35.9,12.33-17.81.82-23.3-5.21-23.3-12.06,0-3.84,2.19-8.5,3.56-10.69-6.58,0-12.33-1.37-15.07-2.47-5.76-2.47-8.77-6.58-8.77-12.88-3.02,1.37-9.04,5.75-12.33,8.5-8.5,7.12-17.54,14.25-28.23,24.39-3.01,2.74-7.95,3.56-13.43,3.84-8.77.55-10.14-.55-8.5-4.39,2.47-5.21,7.67-12.06,12.61-18.36,4.66-6.03,8.22-10.41,11.79-15.07,1.1-1.64,1.64-3.01.55-3.84-.82-.55-2.19,0-4.11,1.1-2.47,1.37-6.3,4.11-9.87,6.85-4.11,3.29-8.22,6.58-12.33,10.41-2.47,2.19-3.84,3.01-4.66,2.19-.28-.55,0-1.37,1.92-3.29,3.84-3.56,9.59-8.5,14.25-12.06,4.93-3.84,16.99-12.88,27.13-12.88,8.5,0,11.24,3.29,11.24,7.4,0,4.38-3.56,9.04-6.03,12.33-3.29,4.11-7.12,8.77-9.59,11.79l.55.55c3.01-3.01,10.96-9.87,19.18-16.72,4.38-3.56,9.32-7.13,14.25-10.14,3.01-1.92,6.58-3.56,8.22-3.84,3.56-.82,7.67-1.1,10.69-.55,4.11.82,5.48,3.56,2.47,5.21-7.95,4.39-10.41,7.95-10.96,10.42-.55,2.74,0,5.48,3.29,7.4,1.92,1.1,4.93,1.64,7.12,1.92,3.84-5.21,12.61-12.88,20.55-16.99,10.41-5.48,22.47-8.77,33.16-8.77,10.14,0,14.25,3.84,13.98,8.5-.55,7.4-8.22,12.33-16.72,15.62-8.5,3.29-21.38,6.03-28.78,6.3-1.64,2.47-3.29,6.85-3.29,9.32,0,3.84,2.47,5.76,6.58,5.76,7.12,0,18.64-3.56,28.78-10.42,5.21-3.56,12.33-9.32,15.62-12.33Zm-26.31-1.64c7.12-5.48,9.32-10.14,10.14-13.7.55-2.47-.55-4.66-3.02-4.66-3.01,0-8.49,2.74-16.44,11.51-6.3,6.85-9.04,11.24-10.69,13.7,4.38-.27,12.61-1.37,20.01-6.85Z"/>
        <path class="cls-1" d="m1209.32,84.37c-37.55-1.1-63.86,10.14-67.42,32.61-1.92,11.51-.55,25.21,19.46,31.79,3.01.82,3.56.82,3.29,1.64-.28.82-2.19.82-5.21,0-17.27-4.93-29.87-19.46-27.68-35.08,3.84-27.13,31.52-42.75,77.01-38.37,26.04,2.19,57.28,5.48,64.13,1.92,3.84-2.19,6.58-4.39,8.5-3.29,2.19,1.1-.27,2.19-3.01,4.93-7.4,6.58-12.88,12.88-20.28,21.65-7.67,10.14-13.43,17.54-18.64,24.39l34.26-.27c6.03-6.85,12.88-13.7,18.09-18.64,8.77-8.77,23.02-21.65,39.74-30.42,11.51-6.03,23.84-9.87,36.18-9.87,9.59,0,16.17,4.66,18.09,10.14.82,2.19.55,3.84-.27,4.11-.55.27-.55-.82-1.37-2.47-2.19-4.38-7.4-7.67-16.17-7.67-7.95,0-17.81,4.66-24.12,9.32-7.12,4.93-13.7,11.51-24.94,23.3-7.67,7.95-14.25,15.9-19.73,23.02,6.85-.27,17.54.27,22.47.55,2.47.27,6.03.27,5.76,1.37-.55,1.64-3.29,1.37-5.48,1.37-9.59,0-19.19,0-25.49.27-12.33,15.62-31.24,40.01-29.6,48.78.55,3.56,3.29,4.38,5.48,4.38,4.66,0,10.96-2.47,19.46-8.5,3.84-2.74,9.87-7.95,14.25-11.78,2.19-1.92,3.84-3.29,4.66-2.47,1.1.82-1.1,2.74-1.92,3.56-4.66,4.11-10.96,9.59-15.35,12.88-3.56,2.74-14.25,10.96-27.95,10.96-12.06,0-20.55-3.84-20.83-12.88-.82-14.25,18.09-35.63,25.76-44.95l-33.98.55c-26.58,32.61-60.84,60.57-99.76,60.57-13.15,0-29.05-5.76-29.05-21.38,0-8.77,6.58-15.9,15.9-15.9,7.12,0,11.78,5.21,11.24,11.79-.28,3.29-1.92,6.03-4.38,8.22s-3.56,4.38-3.56,6.85c.27,5.76,5.48,7.95,11.24,7.95,29.32,0,55.63-37.55,71.26-57.55h-20.01c-1.92,0-5.21.27-5.21-1.64,0-.82,2.19-1.1,7.95-1.64,7.4-.82,14.53-1.37,20.28-1.64,8.5-9.59,30.15-34.26,59.2-45.5-13.43,4.93-41.11,3.84-62.21,3.01Z"/>
        <path class="cls-1" d="m1319.77,155.35c-4.11,3.29-8.5,7.13-11.24,9.59-1.92,1.64-3.29,2.47-3.84,1.92-.82-.82,0-1.92,1.64-3.56,2.74-2.47,11.24-10.14,19.73-15.62,7.4-4.66,15.35-7.95,24.39-7.95,10.14,0,12.06.82,9.04,4.38-4.66,5.48-10.14,11.79-15.62,18.64-4.66,5.75-8.22,10.69-10.41,14.8-1.1,1.92-1.37,3.84-.27,4.66,1.1.82,3.01.55,6.3-1.1,6.03-3.01,12.06-7.4,20.55-13.98,11.51-9.04,18.64-16.72,28.23-24.94,2.74-2.19,4.11-3.01,12.88-3.01,10.69,0,12.06.55,9.04,4.38-4.39,5.48-9.04,11.51-14.25,19.18-4.11,6.03-6.3,9.32-7.95,12.33-1.64,3.02-1.92,4.93-.55,6.03,1.37,1.1,4.11.55,6.85-.82,3.29-1.64,6.85-4.11,10.96-7.4,6.03-4.93,10.41-8.77,13.98-12.06.82-.82,2.47-1.92,3.29-1.1.82,1.1-.55,2.19-3.29,4.66-4.11,3.84-10.14,9.04-15.62,13.43-5.76,4.66-16.72,12.06-27.13,12.06-13.15,0-14.25-7.13-13.7-11.78.27-3.02,2.19-6.85,4.38-9.87,1.1-1.64,3.29-4.38,5.21-6.85l-.55-.55c-4.93,4.38-11.51,9.59-15.9,12.88-7.67,5.76-20.83,15.9-34.53,15.9-9.32,0-12.33-3.84-12.33-8.77,0-3.56,1.92-7.13,4.66-11.24,6.03-8.77,18.36-22.2,23.57-24.94-4.66,1.64-10.14,4.93-17.54,10.69Z"/>
        <path class="cls-1" d="m1437.34,145.48c6.58-9.04,21.1-26.58,33.44-40.29,9.59-10.69,24.12-25.49,33.98-32.89,4.93-3.56,13.16-5.75,19.46-5.75s9.59.82,9.59,1.92c-9.04,4.66-30.97,26.58-50.43,49.88-10.14,12.06-30.15,38.64-35.9,46.86l.55.27c5.76-4.66,14.8-12.61,23.02-17.54,5.48-3.56,16.17-9.32,27.96-9.32,10.96,0,15.07,4.93,14.53,11.24-.55,4.66-2.19,8.5-5.48,13.15,5.48-1.92,21.1-8.77,29.05-14.25,1.1-.82,2.19-1.37,2.74-.27.28.82-.27,1.64-2.19,3.01-6.3,4.66-23.84,12.33-31.52,14.8-2.19,2.74-6.3,6.85-9.59,9.32-12.33,9.04-27.96,13.43-40.01,13.43h-.27c-8.5,0-13.43-1.64-13.43-6.3,0-5.21,6.03-7.4,16.99-10.41,7.67-2.19,16.99-4.11,21.92-6.3,2.47-3.01,7.13-9.59,8.5-13.7,1.1-3.01,2.19-8.22-2.47-8.22-4.93,0-13.98,4.66-23.84,12.33-12.06,9.32-19.46,15.62-30.7,27.68-2.47,2.47-7.13,3.29-12.06,3.56-9.04.55-12.61,0-10.14-4.11,3.29-5.75,7.12-11.24,12.06-18.36,3.01-4.38,5.21-7.12,8.77-11.78l-.27-.27c-4.38,3.84-6.58,6.03-9.59,8.77-3.02,2.74-4.93,3.84-5.48,3.01-.55-.82.55-2.19,2.47-3.84,6.03-5.21,12.33-10.42,18.36-15.62Zm29.6,35.08c4.66-3.01,8.77-6.58,12.61-11.51-3.29,1.64-12.61,3.84-16.99,5.21-9.87,3.01-14.25,4.93-13.98,8.5.27,2.47,3.01,2.74,5.21,2.47,5.21-.55,9.59-2.47,13.15-4.66Z"/>
      </g>
      <g>
        <path class="cls-1" d="m496.14,299.06c-1.77-.99-2.66-2.71-2.66-5.17,0-1.56.39-3.3,1.17-5.22,1.08,1.2,2.08,2.04,3.02,2.52.93.48,1.93.72,3.01.72,3,0,5.23-1.68,6.71-5.04,1.47-3.36,2.21-7.08,2.21-11.16,0-7.62-2.85-11.43-8.55-11.43-1.62,0-3,.09-4.14.27l-7.38,34.47h-12.96l12.24-57.24,13.32-1.8-4.23,19.98h.54c2.28,0,4.41-.73,6.39-2.21,1.98-1.47,3.57-3.33,4.77-5.58,1.2-2.25,1.8-4.51,1.8-6.79,0-2.76-.98-5.07-2.92-6.93-1.95-1.86-4.94-2.79-8.96-2.79-3.66,0-7.23.83-10.71,2.48-3.48,1.65-6.32,4.13-8.5,7.42-2.19,3.3-3.29,7.29-3.29,11.97,0,2.22.21,3.77.63,4.63.42.87.63,1.37.63,1.49-3.18,0-5.58-.64-7.2-1.93-1.62-1.29-2.43-3.41-2.43-6.35,0-4.08,1.53-7.95,4.59-11.61,3.06-3.66,7.11-6.62,12.15-8.87s10.35-3.38,15.93-3.38c4.2,0,7.74.66,10.62,1.98,2.88,1.32,5.02,3.06,6.43,5.22,1.41,2.16,2.12,4.53,2.12,7.11,0,2.76-.78,5.43-2.34,8.01-1.56,2.58-3.78,4.68-6.66,6.3,3.6.66,6.27,2.33,8.01,5,1.74,2.67,2.61,5.84,2.61,9.5,0,3.42-.65,7.14-1.93,11.16-1.29,4.02-3.42,7.49-6.39,10.4s-6.77,4.37-11.38,4.37c-2.4,0-4.49-.5-6.25-1.49Z"/>
        <path class="cls-1" d="m599.06,296.05c-2.28-2.34-3.42-6-3.42-10.98,0-4.44.89-9.1,2.66-14,1.77-4.89,4.41-9.03,7.92-12.42,3.51-3.39,7.69-5.08,12.55-5.08,2.46,0,4.29.42,5.49,1.26,1.2.84,1.8,1.95,1.8,3.33v.63l.99-4.77h12.96l-6.48,30.6c-.24.9-.36,1.86-.36,2.88,0,2.58,1.23,3.87,3.69,3.87,1.68,0,3.13-.78,4.37-2.34,1.23-1.56,2.21-3.6,2.92-6.12h3.78c-2.22,6.48-4.97,10.88-8.24,13.19-3.27,2.31-6.56,3.46-9.85,3.46-2.52,0-4.54-.7-6.08-2.12-1.53-1.41-2.45-3.46-2.75-6.17-1.74,2.46-3.68,4.46-5.8,5.99-2.13,1.53-4.67,2.29-7.61,2.29-3.42,0-6.27-1.17-8.55-3.51Zm18.86-7.33c1.47-1.41,2.47-3.34,3.01-5.81l4.32-20.34c0-.78-.3-1.54-.9-2.29-.6-.75-1.53-1.12-2.79-1.12-2.4,0-4.56,1.4-6.48,4.19-1.92,2.79-3.42,6.15-4.5,10.08-1.08,3.93-1.62,7.4-1.62,10.4s.43,4.92,1.3,5.76c.87.84,1.93,1.26,3.2,1.26,1.5,0,2.98-.7,4.46-2.11Z"/>
        <path class="cls-1" d="m740.13,296.63c-1.71-1.95-2.56-4.37-2.56-7.25,0-1.26.15-2.68.45-4.28.3-1.59.61-3.13.94-4.63.33-1.5.55-2.46.68-2.88.48-2.1.93-4.17,1.35-6.21.42-2.04.63-3.69.63-4.95,0-3.06-1.08-4.59-3.24-4.59-1.56,0-2.94.76-4.14,2.29-1.2,1.53-2.16,3.53-2.88,5.99l-6.12,28.89h-12.96l9.54-45h12.96l-.99,4.68c3-3.36,6.51-5.04,10.53-5.04,3.06,0,5.49.84,7.29,2.52,1.8,1.68,2.7,4.23,2.7,7.65,0,1.74-.21,3.68-.63,5.81-.42,2.13-1.02,4.72-1.8,7.79-.48,1.86-.92,3.68-1.3,5.44-.39,1.77-.58,3.17-.58,4.19,0,1.2.27,2.13.81,2.79s1.47.99,2.79.99c1.8,0,3.24-.64,4.32-1.93,1.08-1.29,2.16-3.29,3.24-5.99h3.78c-2.22,6.6-4.79,11.03-7.7,13.28-2.91,2.25-5.93,3.38-9.04,3.38-3.66,0-6.35-.97-8.06-2.92Z"/>
        <path class="cls-1" d="m841.43,319.27c-1.92-1.5-2.88-3.66-2.88-6.48,0-3.42,1.38-6.16,4.14-8.23,2.76-2.07,6.27-3.8,10.53-5.17l1.08-4.77c-3.06,3.3-6.66,4.95-10.8,4.95-3.42,0-6.27-1.17-8.55-3.51s-3.42-6-3.42-10.98c0-4.44.89-9.1,2.66-14,1.77-4.89,4.41-9.03,7.92-12.42,3.51-3.39,7.69-5.08,12.55-5.08,2.46,0,4.29.42,5.49,1.26,1.2.84,1.8,1.95,1.8,3.33v.54l.99-4.68h12.96l-8.91,41.76c2.88-.96,5.19-2.4,6.93-4.32,1.74-1.92,3.21-4.77,4.41-8.55h3.78c-1.62,5.34-3.81,9.26-6.57,11.75-2.76,2.49-5.88,4.19-9.36,5.08l-1.35,6.48c-1.2,5.82-3.27,9.82-6.21,12.01-2.94,2.19-6.27,3.29-9.99,3.29-2.88,0-5.28-.75-7.2-2.25Zm8.1-6.84c.96-1.38,1.71-3.36,2.25-5.94l.54-2.61c-5.88,2.16-8.82,4.71-8.82,7.65,0,.78.27,1.47.81,2.07.54.6,1.29.9,2.25.9,1.02,0,2.01-.69,2.97-2.07Zm4.05-23.49c1.44-1.26,2.43-2.97,2.97-5.13l4.59-21.33c0-.72-.3-1.45-.9-2.21-.6-.75-1.53-1.12-2.79-1.12-2.4,0-4.56,1.4-6.48,4.19-1.92,2.79-3.42,6.15-4.5,10.08-1.08,3.93-1.62,7.4-1.62,10.4s.43,4.92,1.3,5.76c.87.84,1.93,1.26,3.2,1.26,1.38,0,2.79-.63,4.23-1.89Z"/>
        <path class="cls-1" d="m951.81,296.86c-1.77-1.8-2.65-4.5-2.65-8.1,0-1.5.24-3.45.72-5.85l9.63-45.09,13.32-1.8-10.35,48.6c-.24.9-.36,1.86-.36,2.88,0,1.2.28,2.06.85,2.56.57.51,1.51.76,2.83.76,1.74,0,3.36-.73,4.86-2.2,1.5-1.47,2.58-3.38,3.24-5.72h3.78c-2.22,6.48-5.07,10.88-8.55,13.19-3.48,2.31-6.93,3.46-10.35,3.46-2.88,0-5.21-.9-6.98-2.7Z"/>
        <path class="cls-1" d="m1047.7,296.05c-2.28-2.34-3.42-6-3.42-10.98,0-4.44.89-9.1,2.66-14,1.77-4.89,4.41-9.03,7.92-12.42,3.51-3.39,7.69-5.08,12.55-5.08,2.46,0,4.29.42,5.49,1.26,1.2.84,1.8,1.95,1.8,3.33v.63l.99-4.77h12.96l-6.48,30.6c-.24.9-.36,1.86-.36,2.88,0,2.58,1.23,3.87,3.69,3.87,1.68,0,3.13-.78,4.37-2.34,1.23-1.56,2.21-3.6,2.92-6.12h3.78c-2.22,6.48-4.97,10.88-8.24,13.19-3.27,2.31-6.56,3.46-9.85,3.46-2.52,0-4.54-.7-6.08-2.12-1.53-1.41-2.45-3.46-2.75-6.17-1.74,2.46-3.68,4.46-5.8,5.99-2.13,1.53-4.67,2.29-7.61,2.29-3.42,0-6.27-1.17-8.55-3.51Zm18.86-7.33c1.47-1.41,2.47-3.34,3.01-5.81l4.32-20.34c0-.78-.3-1.54-.9-2.29-.6-.75-1.53-1.12-2.79-1.12-2.4,0-4.56,1.4-6.48,4.19-1.92,2.79-3.42,6.15-4.5,10.08-1.08,3.93-1.62,7.4-1.62,10.4s.43,4.92,1.3,5.76c.87.84,1.93,1.26,3.2,1.26,1.5,0,2.98-.7,4.46-2.11Z"/>
        <path class="cls-1" d="m1166.59,296.05c-2.28-2.34-3.42-6-3.42-10.98,0-4.44.89-9.1,2.66-14,1.77-4.89,4.41-9.03,7.92-12.42,3.51-3.39,7.69-5.08,12.55-5.08,2.46,0,4.29.42,5.49,1.26,1.2.84,1.8,1.95,1.8,3.33v.36l4.41-20.7,13.32-1.8-10.35,48.6c-.24.9-.36,1.86-.36,2.88,0,1.2.28,2.06.86,2.56.57.51,1.51.76,2.83.76,1.68,0,3.13-.72,4.37-2.16,1.23-1.44,2.21-3.36,2.92-5.76h3.78c-3.66,10.74-9.69,16.11-18.09,16.11-2.46,0-4.46-.66-5.99-1.98-1.53-1.32-2.47-3.24-2.83-5.76-1.56,2.4-3.44,4.38-5.62,5.94-2.19,1.56-4.76,2.34-7.7,2.34-3.42,0-6.27-1.17-8.55-3.51Zm18.76-7.2c1.47-1.32,2.48-3.15,3.02-5.49v-.45l4.41-20.61c-.54-2.1-1.77-3.15-3.69-3.15-2.4,0-4.56,1.4-6.48,4.19-1.92,2.79-3.42,6.15-4.5,10.08-1.08,3.93-1.62,7.4-1.62,10.4s.43,4.92,1.3,5.76c.87.84,1.93,1.26,3.2,1.26,1.44,0,2.89-.66,4.36-1.98Z"/>
        <path class="cls-1" d="m1285.66,296.09c-2.46-2.31-3.69-5.92-3.69-10.84,0-4.14.81-8.7,2.43-13.68,1.62-4.98,4.26-9.28,7.92-12.92,3.66-3.63,8.31-5.44,13.95-5.44,6.6,0,9.9,2.88,9.9,8.64,0,3.36-.96,6.45-2.88,9.27-1.92,2.82-4.47,5.08-7.65,6.79-3.18,1.71-6.57,2.69-10.17,2.93-.12,1.8-.18,3-.18,3.6,0,2.94.51,4.94,1.53,5.99,1.02,1.05,2.67,1.58,4.95,1.58,3.24,0,6.01-.75,8.33-2.25,2.31-1.5,4.84-3.78,7.6-6.84h3.06c-6.66,11.1-14.91,16.65-24.75,16.65-4.44,0-7.89-1.15-10.35-3.46Zm16.88-21.92c2.01-1.44,3.63-3.27,4.86-5.49,1.23-2.22,1.84-4.56,1.84-7.02s-.75-3.69-2.25-3.69c-2.16,0-4.27,1.89-6.34,5.67s-3.55,8.07-4.46,12.87c2.22-.12,4.33-.9,6.34-2.34Z"/>
        <path class="cls-1" d="m1392.22,297.89c-1.98-1.11-3.45-2.55-4.41-4.32-.96-1.77-1.44-3.61-1.44-5.54s.47-3.7,1.39-5.17c.93-1.47,2.05-2.53,3.38-3.19,2.34-4.2,4.38-8.45,6.12-12.74,1.74-4.29,3.39-8.92,4.95-13.91l13.32-1.8c.3,7.68.81,15.99,1.53,24.93.3,3.6.45,6.21.45,7.83,0,1.38-.12,2.52-.36,3.42,2.82-1.62,4.98-3.12,6.48-4.5h3.78c-3.84,4.44-8.43,8.19-13.77,11.25-1.74,1.86-3.88,3.23-6.43,4.1-2.55.87-5.12,1.3-7.7,1.3-2.88,0-5.31-.55-7.29-1.67Zm9.99-7.42c1.5-1.32,2.25-3.45,2.25-6.39,0-1.8-.18-4.32-.54-7.56-.6-6.84-.99-11.43-1.17-13.77-1.44,4.74-3.87,10.41-7.29,17.01,1.38.72,2.07,1.77,2.07,3.15,0,1.14-.38,2.16-1.12,3.06-.75.9-1.7,1.35-2.83,1.35-1.26,0-2.07-.39-2.43-1.17,0,2.16.43,3.75,1.31,4.77.87,1.02,2.26,1.53,4.18,1.53,2.22,0,4.08-.66,5.58-1.98Z"/>
        <path class="cls-1" d="m1519.12,296.68c-1.44-1.92-2.16-4.35-2.16-7.29,0-1.26.15-2.68.45-4.28.3-1.59.61-3.13.94-4.63.33-1.5.55-2.46.67-2.88.48-2.1.93-4.17,1.35-6.21.42-2.04.63-3.69.63-4.95,0-3.06-1.08-4.59-3.24-4.59-1.44,0-2.75.66-3.92,1.98-1.17,1.32-2.12,3.06-2.83,5.22l-6.39,29.97h-12.96l13.05-61.2,13.32-1.8-4.86,22.59c3-3.3,6.51-4.95,10.53-4.95,3.06,0,5.49.84,7.29,2.52,1.8,1.68,2.7,4.23,2.7,7.65,0,1.74-.21,3.68-.63,5.81-.42,2.13-1.02,4.72-1.8,7.79-.48,1.86-.92,3.68-1.3,5.44-.39,1.77-.58,3.17-.58,4.19,0,1.2.27,2.13.81,2.79s1.47.99,2.79.99c1.44,0,2.43-.18,2.97-.54-.36,3.06-1.46,5.37-3.28,6.93-1.83,1.56-4.04,2.34-6.62,2.34-3.18,0-5.49-.96-6.93-2.88Z"/>
      </g>
    </g>
  </g>
</svg>